<mxfile host="app.diagrams.net" modified="2024-09-04T12:18:12.208Z" agent="Mozilla/5.0 (Windows NT 10.0; Win64; x64) AppleWebKit/537.36 (KHTML, like Gecko) Chrome/128.0.0.0 Safari/537.36" etag="kFFQjiL_YD8lf3J9_PYd" version="23.1.2" type="github">
  <diagram name="Page-1" id="s6kPAQsjkrwf71C5Ajod">
    <mxGraphModel dx="1793" dy="923" grid="1" gridSize="10" guides="1" tooltips="1" connect="1" arrows="1" fold="1" page="1" pageScale="1" pageWidth="1169" pageHeight="827" math="0" shadow="0">
      <root>
        <mxCell id="0" />
        <mxCell id="1" parent="0" />
        <mxCell id="nXYT7aqyzv4ZNqB--j9o-5" value="" style="edgeStyle=orthogonalEdgeStyle;rounded=0;orthogonalLoop=1;jettySize=auto;html=1;" edge="1" parent="1" source="nXYT7aqyzv4ZNqB--j9o-3" target="nXYT7aqyzv4ZNqB--j9o-4">
          <mxGeometry relative="1" as="geometry" />
        </mxCell>
        <mxCell id="nXYT7aqyzv4ZNqB--j9o-3" value="Page loads" style="ellipse;whiteSpace=wrap;html=1;fillColor=#a0522d;strokeColor=#6D1F00;fontColor=#ffffff;fontSize=23;" vertex="1" parent="1">
          <mxGeometry x="10" y="130" width="180" height="80" as="geometry" />
        </mxCell>
        <mxCell id="nXYT7aqyzv4ZNqB--j9o-9" value="" style="edgeStyle=orthogonalEdgeStyle;rounded=0;orthogonalLoop=1;jettySize=auto;html=1;" edge="1" parent="1" source="nXYT7aqyzv4ZNqB--j9o-4" target="nXYT7aqyzv4ZNqB--j9o-8">
          <mxGeometry relative="1" as="geometry" />
        </mxCell>
        <mxCell id="nXYT7aqyzv4ZNqB--j9o-42" style="edgeStyle=orthogonalEdgeStyle;rounded=0;orthogonalLoop=1;jettySize=auto;html=1;" edge="1" parent="1" source="nXYT7aqyzv4ZNqB--j9o-4">
          <mxGeometry relative="1" as="geometry">
            <mxPoint x="470" y="330" as="targetPoint" />
          </mxGeometry>
        </mxCell>
        <mxCell id="nXYT7aqyzv4ZNqB--j9o-4" value="get current location coordinateds using geolocation" style="whiteSpace=wrap;html=1;fontSize=23;fillColor=#f8cecc;strokeColor=#C73500;fontColor=#000000;" vertex="1" parent="1">
          <mxGeometry x="230" y="120" width="210" height="100" as="geometry" />
        </mxCell>
        <mxCell id="nXYT7aqyzv4ZNqB--j9o-6" value="ASYNC" style="text;html=1;strokeColor=none;fillColor=default;align=center;verticalAlign=middle;whiteSpace=wrap;rounded=0;fontSize=24;gradientColor=none;fontColor=#ff0000;" vertex="1" parent="1">
          <mxGeometry x="420" y="50" width="80" height="30" as="geometry" />
        </mxCell>
        <mxCell id="nXYT7aqyzv4ZNqB--j9o-15" value="" style="edgeStyle=orthogonalEdgeStyle;rounded=0;orthogonalLoop=1;jettySize=auto;html=1;dashed=1;" edge="1" parent="1" source="nXYT7aqyzv4ZNqB--j9o-8" target="nXYT7aqyzv4ZNqB--j9o-14">
          <mxGeometry relative="1" as="geometry" />
        </mxCell>
        <mxCell id="nXYT7aqyzv4ZNqB--j9o-8" value="Render Map on current location" style="whiteSpace=wrap;html=1;fontSize=23;fillColor=#d5e8d4;strokeColor=#C73500;fontColor=#000000;" vertex="1" parent="1">
          <mxGeometry x="500" y="130" width="205" height="80" as="geometry" />
        </mxCell>
        <mxCell id="nXYT7aqyzv4ZNqB--j9o-24" value="" style="edgeStyle=orthogonalEdgeStyle;rounded=0;orthogonalLoop=1;jettySize=auto;html=1;" edge="1" parent="1" source="nXYT7aqyzv4ZNqB--j9o-14">
          <mxGeometry relative="1" as="geometry">
            <mxPoint x="1083.75" y="170" as="targetPoint" />
          </mxGeometry>
        </mxCell>
        <mxCell id="nXYT7aqyzv4ZNqB--j9o-14" value="user clicks on map" style="ellipse;whiteSpace=wrap;html=1;fontSize=23;fillColor=#a0522d;strokeColor=#6D1F00;fontColor=#ffffff;" vertex="1" parent="1">
          <mxGeometry x="790" y="130" width="182.5" height="80" as="geometry" />
        </mxCell>
        <mxCell id="nXYT7aqyzv4ZNqB--j9o-16" value="Bind handle" style="text;html=1;strokeColor=none;fillColor=default;align=center;verticalAlign=middle;whiteSpace=wrap;rounded=0;fontSize=24;gradientColor=none;fontColor=#000000;" vertex="1" parent="1">
          <mxGeometry x="710" y="120" width="80" height="30" as="geometry" />
        </mxCell>
        <mxCell id="nXYT7aqyzv4ZNqB--j9o-29" value="" style="edgeStyle=orthogonalEdgeStyle;rounded=0;orthogonalLoop=1;jettySize=auto;html=1;dashed=1;dashPattern=8 8;" edge="1" parent="1" source="nXYT7aqyzv4ZNqB--j9o-25">
          <mxGeometry relative="1" as="geometry">
            <mxPoint x="1192.5" y="290" as="targetPoint" />
          </mxGeometry>
        </mxCell>
        <mxCell id="nXYT7aqyzv4ZNqB--j9o-25" value="Render workout form&amp;nbsp;" style="whiteSpace=wrap;html=1;fontSize=23;fillColor=#d5e8d4;strokeColor=#C73500;fontColor=#000000;" vertex="1" parent="1">
          <mxGeometry x="1090" y="130" width="205" height="80" as="geometry" />
        </mxCell>
        <mxCell id="nXYT7aqyzv4ZNqB--j9o-26" value="Bind handle" style="text;html=1;strokeColor=none;fillColor=default;align=center;verticalAlign=middle;whiteSpace=wrap;rounded=0;fontSize=24;gradientColor=none;fontColor=#000000;" vertex="1" parent="1">
          <mxGeometry x="1270" y="250" width="80" height="30" as="geometry" />
        </mxCell>
        <mxCell id="nXYT7aqyzv4ZNqB--j9o-31" value="" style="edgeStyle=orthogonalEdgeStyle;rounded=0;orthogonalLoop=1;jettySize=auto;html=1;entryX=1;entryY=0.5;entryDx=0;entryDy=0;" edge="1" parent="1" source="nXYT7aqyzv4ZNqB--j9o-27" target="nXYT7aqyzv4ZNqB--j9o-35">
          <mxGeometry relative="1" as="geometry">
            <mxPoint x="941.2549999999997" y="265" as="targetPoint" />
            <Array as="points">
              <mxPoint x="941" y="335" />
              <mxPoint x="941" y="265" />
            </Array>
          </mxGeometry>
        </mxCell>
        <mxCell id="nXYT7aqyzv4ZNqB--j9o-32" style="edgeStyle=orthogonalEdgeStyle;rounded=0;orthogonalLoop=1;jettySize=auto;html=1;" edge="1" parent="1" source="nXYT7aqyzv4ZNqB--j9o-27" target="nXYT7aqyzv4ZNqB--j9o-34">
          <mxGeometry relative="1" as="geometry">
            <mxPoint x="940" y="380" as="targetPoint" />
          </mxGeometry>
        </mxCell>
        <mxCell id="nXYT7aqyzv4ZNqB--j9o-33" style="edgeStyle=orthogonalEdgeStyle;rounded=0;orthogonalLoop=1;jettySize=auto;html=1;" edge="1" parent="1" source="nXYT7aqyzv4ZNqB--j9o-27" target="nXYT7aqyzv4ZNqB--j9o-39">
          <mxGeometry relative="1" as="geometry">
            <mxPoint x="1030" y="490" as="targetPoint" />
            <Array as="points">
              <mxPoint x="1050" y="335" />
              <mxPoint x="1050" y="520" />
            </Array>
          </mxGeometry>
        </mxCell>
        <mxCell id="nXYT7aqyzv4ZNqB--j9o-27" value="user submit&amp;nbsp; new worksout" style="ellipse;whiteSpace=wrap;html=1;fontSize=23;fillColor=#a0522d;strokeColor=#6D1F00;fontColor=#ffffff;" vertex="1" parent="1">
          <mxGeometry x="1090" y="290" width="193.75" height="90" as="geometry" />
        </mxCell>
        <mxCell id="nXYT7aqyzv4ZNqB--j9o-46" style="edgeStyle=orthogonalEdgeStyle;rounded=0;orthogonalLoop=1;jettySize=auto;html=1;dashed=1;" edge="1" parent="1" source="nXYT7aqyzv4ZNqB--j9o-34" target="nXYT7aqyzv4ZNqB--j9o-48">
          <mxGeometry relative="1" as="geometry">
            <mxPoint x="510" y="520" as="targetPoint" />
            <Array as="points">
              <mxPoint x="640" y="380" />
              <mxPoint x="640" y="510" />
              <mxPoint x="561" y="510" />
            </Array>
          </mxGeometry>
        </mxCell>
        <mxCell id="nXYT7aqyzv4ZNqB--j9o-34" value="Render on list the workout" style="whiteSpace=wrap;html=1;fontSize=23;fillColor=#D5E8D4;strokeColor=#C73500;fontColor=#000000;" vertex="1" parent="1">
          <mxGeometry x="720" y="340" width="205" height="80" as="geometry" />
        </mxCell>
        <mxCell id="nXYT7aqyzv4ZNqB--j9o-35" value="Render on map workout" style="whiteSpace=wrap;html=1;fontSize=23;fillColor=#d5e8d4;strokeColor=#C73500;fontColor=#000000;" vertex="1" parent="1">
          <mxGeometry x="720" y="225" width="205" height="80" as="geometry" />
        </mxCell>
        <mxCell id="nXYT7aqyzv4ZNqB--j9o-39" value="&lt;font style=&quot;font-size: 24px;&quot;&gt;store workouts in local storge&lt;/font&gt;" style="shape=ext;double=1;rounded=0;whiteSpace=wrap;html=1;fillColor=#66B2FF;" vertex="1" parent="1">
          <mxGeometry x="720" y="460" width="200" height="80" as="geometry" />
        </mxCell>
        <mxCell id="nXYT7aqyzv4ZNqB--j9o-43" style="edgeStyle=orthogonalEdgeStyle;rounded=0;orthogonalLoop=1;jettySize=auto;html=1;" edge="1" parent="1" source="nXYT7aqyzv4ZNqB--j9o-40" target="nXYT7aqyzv4ZNqB--j9o-35">
          <mxGeometry relative="1" as="geometry" />
        </mxCell>
        <mxCell id="nXYT7aqyzv4ZNqB--j9o-44" style="edgeStyle=orthogonalEdgeStyle;rounded=0;orthogonalLoop=1;jettySize=auto;html=1;" edge="1" parent="1">
          <mxGeometry relative="1" as="geometry">
            <mxPoint x="420" y="340" as="sourcePoint" />
            <mxPoint x="720" y="390" as="targetPoint" />
          </mxGeometry>
        </mxCell>
        <mxCell id="nXYT7aqyzv4ZNqB--j9o-40" value="&lt;font style=&quot;font-size: 24px;&quot;&gt;load workouts from local storage&lt;/font&gt;" style="shape=ext;double=1;rounded=0;whiteSpace=wrap;html=1;fillColor=#66B2FF;" vertex="1" parent="1">
          <mxGeometry x="220" y="290" width="200" height="80" as="geometry" />
        </mxCell>
        <mxCell id="nXYT7aqyzv4ZNqB--j9o-41" style="edgeStyle=orthogonalEdgeStyle;rounded=0;orthogonalLoop=1;jettySize=auto;html=1;entryX=0;entryY=0.5;entryDx=0;entryDy=0;" edge="1" parent="1" source="nXYT7aqyzv4ZNqB--j9o-3" target="nXYT7aqyzv4ZNqB--j9o-40">
          <mxGeometry relative="1" as="geometry">
            <mxPoint x="400" y="420" as="targetPoint" />
            <Array as="points">
              <mxPoint x="100" y="320" />
            </Array>
          </mxGeometry>
        </mxCell>
        <mxCell id="nXYT7aqyzv4ZNqB--j9o-45" value="after map loaded" style="text;html=1;strokeColor=none;fillColor=default;align=center;verticalAlign=middle;whiteSpace=wrap;rounded=0;fontSize=24;gradientColor=none;fontColor=#ff0000;" vertex="1" parent="1">
          <mxGeometry x="480" y="220" width="80" height="90" as="geometry" />
        </mxCell>
        <mxCell id="nXYT7aqyzv4ZNqB--j9o-47" value="move map to workout location" style="whiteSpace=wrap;html=1;fontSize=23;fillColor=#D5E8D4;strokeColor=#C73500;fontColor=#000000;" vertex="1" parent="1">
          <mxGeometry x="110" y="470" width="205" height="80" as="geometry" />
        </mxCell>
        <mxCell id="nXYT7aqyzv4ZNqB--j9o-49" style="edgeStyle=orthogonalEdgeStyle;rounded=0;orthogonalLoop=1;jettySize=auto;html=1;" edge="1" parent="1" source="nXYT7aqyzv4ZNqB--j9o-48" target="nXYT7aqyzv4ZNqB--j9o-47">
          <mxGeometry relative="1" as="geometry" />
        </mxCell>
        <mxCell id="nXYT7aqyzv4ZNqB--j9o-48" value="user clicks on map" style="ellipse;whiteSpace=wrap;html=1;fontSize=23;fillColor=#a0522d;strokeColor=#6D1F00;fontColor=#ffffff;" vertex="1" parent="1">
          <mxGeometry x="420" y="470" width="182.5" height="80" as="geometry" />
        </mxCell>
        <mxCell id="nXYT7aqyzv4ZNqB--j9o-50" value="Bind handle" style="text;html=1;strokeColor=none;fillColor=default;align=center;verticalAlign=middle;whiteSpace=wrap;rounded=0;fontSize=24;gradientColor=none;fontColor=#000000;" vertex="1" parent="1">
          <mxGeometry x="540" y="400" width="80" height="30" as="geometry" />
        </mxCell>
        <mxCell id="nXYT7aqyzv4ZNqB--j9o-51" value="Many" style="text;html=1;strokeColor=none;fillColor=default;align=center;verticalAlign=middle;whiteSpace=wrap;rounded=0;fontSize=24;gradientColor=none;fontColor=#000000;" vertex="1" parent="1">
          <mxGeometry x="782.5" y="570" width="80" height="10" as="geometry" />
        </mxCell>
        <mxCell id="nXYT7aqyzv4ZNqB--j9o-53" value="Many" style="text;html=1;strokeColor=none;fillColor=default;align=center;verticalAlign=middle;whiteSpace=wrap;rounded=0;fontSize=24;gradientColor=none;fontColor=#000000;" vertex="1" parent="1">
          <mxGeometry x="270" y="384" width="80" height="30" as="geometry" />
        </mxCell>
      </root>
    </mxGraphModel>
  </diagram>
</mxfile>
